# xmcd
#
# Track frame offsets: 
#        150
#        2946
#        25011
#        40115
#        53019
#        70145
#        89497
#        103507
#        115255
#        135694
#        146010
#        161280
#        181917
#        191013
#        209675
#
# Disc length: 3014 seconds
#
# Revision: 0
# Processed by: cddbd v1.5.1PL2 Copyright (c) Steve Scherf et al.
# Submitted via: ExactAudioCopy v0.95b4
#
DISCID=cd0bc40f
DTITLE=Omara Portuondo - Lágrimas Negras CD2
DYEAR=2005
DGENRE=Salsa
TTITLE0=Obertura
TTITLE1=Hasta Siempre
TTITLE2=Veinte Años
TTITLE3=Interludio
TTITLE4=Es Lo Que Me Queda Por Vivir
TTITLE5=Lágrimas Negras
TTITLE6=Y Sólo Tú y Yo
TTITLE7=Allí
TTITLE8=Vuela Pena
TTITLE9=Me Acostumbré a Estar Sin Tí
TTITLE10=Canción de un Festival
TTITLE11=Gracias a la Vida
TTITLE12=Por Qué Dudas
TTITLE13=Y Tal Vez
TTITLE14=Un Ratico Más No Importa
EXTD=
EXTT0=
EXTT1=
EXTT2=
EXTT3=
EXTT4=
EXTT5=
EXTT6=
EXTT7=
EXTT8=
EXTT9=
EXTT10=
EXTT11=
EXTT12=
EXTT13=
EXTT14=
PLAYORDER=
